<svg xmlns="http://www.w3.org/2000/svg" viewBox="0 0 64 64" fill="none" stroke-linecap="round" stroke-linejoin="round" role="img" aria-labelledby="title"><title id="title">BondEx group</title><circle cx="14" cy="24" r="6" fill="#16161a"/><circle cx="50" cy="24" r="6" fill="#16161a"/><path d="M3 45Q3 32 13 32Q18 32 20 36L18 46H5Q3 46 3 45 M46 46 44 36Q46 32 51 32Q61 32 61 45Q61 46 59 46Z" fill="#16161a"/><circle cx="32" cy="20" r="8" fill="#16161a"/><path d="M16 49Q16 33 32 33Q48 33 48 49Q48 51 45 51H19Q16 51 16 49" fill="#16161a" stroke="#FFFFFF" stroke-width="2"/></svg>
