<svg xmlns="http://www.w3.org/2000/svg" viewBox="0 0 64 64" fill="none" stroke-linecap="round" stroke-linejoin="round" role="img" aria-labelledby="title"><title id="title">BondEx route</title><g transform="translate(4 23) scale(0.72)"><path d="M0 12C0 5 5 0 11 0S22 5 22 12C22 20 11 34 11 34S0 20 0 12" fill="#16161a"/><circle cx="11" cy="11" r="5" fill="#FFFFFF"/></g><g transform="translate(46 12) scale(0.57)"><path d="M0 12C0 5 5 0 11 0S22 5 22 12C22 20 11 34 11 34S0 20 0 12" fill="#16161a"/><circle cx="11" cy="11" r="5" fill="#FFFFFF"/></g><path d="M17 49C28 49 29 35 47 36" fill="none" stroke="#16161a" stroke-width="2.5" stroke-linecap="round" stroke-dasharray="1 4"/></svg>
